<svg version="1.0" xmlns="http://www.w3.org/2000/svg"
 viewBox="60 28 175 252"
 preserveAspectRatio="xMidYMid meet">
<g transform="translate(0.000000,286.000000) scale(0.100000,-0.100000)"
fill="#F5C518" stroke="none">
<path d="M1440 2450 c-206 -38 -399 -207 -456 -399 -32 -109 -40 -271 -13
-271 5 0 37 43 71 95 35 52 66 95 70 95 4 0 31 -40 60 -89 39 -65 58 -87 67
-81 8 4 60 79 116 166 57 88 108 159 115 159 7 0 105 -142 216 -315 112 -173
210 -316 217 -318 34 -7 126 130 163 243 31 92 28 250 -6 357 -36 114 -121
227 -224 297 -25 18 -46 30 -46 27 0 -3 -24 4 -52 15 -60 24 -220 34 -298 19z
m-40 -167 c0 -20 -28 -27 -45 -13 -12 10 -18 10 -30 0 -12 -10 -18 -10 -30 0
-14 12 -12 17 17 47 l32 33 28 -27 c15 -15 28 -33 28 -40z m-115 -53 c27 -28
28 -31 13 -47 -14 -13 -20 -14 -32 -4 -11 9 -20 9 -34 2 -15 -8 -23 -7 -32 5
-11 12 -8 20 15 44 16 17 32 30 35 30 3 0 19 -14 35 -30z"/>
</g>
<g transform="translate(0.000000,286.000000) scale(0.100000,-0.100000)"
fill="#FFFFFF" stroke="none">
<path d="M1415 2520 c-61 -8 -147 -35 -201 -63 -53 -27 -142 -103 -188 -158
-93 -113 -136 -237 -137 -391 0 -113 18 -194 66 -287 32 -64 98 -151 114 -151
14 0 133 188 126 199 -12 21 -22 11 -74 -70 -30 -48 -55 -78 -62 -73 -19 11
-89 126 -89 145 0 18 130 228 141 229 4 0 46 -68 94 -150 48 -83 92 -153 97
-156 5 -4 14 -2 19 3 5 5 -7 33 -28 68 -20 33 -36 65 -36 70 0 9 179 291 205
322 9 11 20 -1 58 -59 385 -600 564 -876 576 -887 11 -13 14 -12 19 1 4 10
-30 72 -93 169 l-99 154 53 62 c57 66 99 142 130 233 15 43 19 82 18 180 -1
109 -4 135 -27 199 -102 285 -379 451 -682 411z m306 -65 c217 -88 356 -278
375 -513 11 -144 -46 -314 -142 -421 -38 -43 -49 -50 -59 -39 -7 7 -104 155
-215 328 -112 173 -204 317 -206 319 -2 2 -55 -76 -118 -173 -64 -97 -119
-176 -123 -176 -5 0 -32 41 -61 90 -29 50 -56 90 -60 90 -4 0 -40 -52 -81
-115 -40 -63 -77 -115 -82 -115 -15 0 -24 73 -23 190 1 128 17 188 76 289 67
112 203 220 331 261 105 33 286 27 388 -15z"/>
<path d="M1312 2313 c-25 -30 -15 -56 13 -33 13 11 19 10 35 -5 18 -16 20 -17
26 -1 4 11 -2 26 -16 42 -28 29 -29 29 -58 -3z"/>
<path d="M1220 2225 c-18 -19 -21 -28 -12 -37 8 -8 15 -8 27 2 12 10 18 10 30
0 12 -10 19 -10 27 -2 9 9 6 18 -12 37 -13 14 -26 25 -30 25 -4 0 -17 -11 -30
-25z"/>
<path d="M805 1494 c-54 -82 -98 -156 -99 -164 -3 -40 31 -2 119 133 72 112
93 152 86 164 -7 13 -29 -14 -106 -133z"/>
<path d="M712 1004 c-45 -31 -19 -85 48 -99 51 -11 70 -23 70 -45 0 -41 -71
-53 -114 -19 -29 23 -42 20 -32 -6 13 -35 115 -45 151 -15 19 16 19 64 1 79
-7 6 -37 18 -65 27 -55 16 -71 35 -51 59 16 19 74 19 90 0 14 -17 40 -20 40
-6 0 18 -45 41 -80 41 -20 0 -46 -7 -58 -16z"/>
<path d="M900 910 c0 -91 3 -110 15 -110 11 0 15 12 15 50 l0 50 60 0 60 0 0
-50 c0 -38 4 -50 15 -50 12 0 15 19 15 110 0 91 -3 110 -15 110 -11 0 -15 -12
-15 -45 l0 -45 -60 0 -60 0 0 45 c0 33 -4 45 -15 45 -12 0 -15 -19 -15 -110z"/>
<path d="M1130 910 l0 -110 85 0 c50 0 85 4 85 10 0 6 -30 10 -70 10 l-70 0 0
40 0 39 60 3 c78 4 78 22 0 26 l-60 3 0 34 0 35 65 0 c37 0 65 4 65 10 0 6
-33 10 -80 10 l-80 0 0 -110z"/>
<path d="M1340 910 l0 -110 70 0 c40 0 70 4 70 10 0 6 -25 10 -55 10 l-55 0 0
100 c0 82 -3 100 -15 100 -12 0 -15 -19 -15 -110z"/>
<path d="M1500 1010 c0 -5 18 -10 40 -10 l40 0 0 -100 c0 -130 18 -132 22 -2
l3 97 38 3 c73 6 35 22 -53 22 -53 0 -90 -4 -90 -10z"/>
<path d="M1764 1011 c-55 -24 -74 -123 -34 -174 42 -53 146 -43 176 15 21 40
14 113 -14 140 -22 23 -95 33 -128 19z m100 -32 c22 -17 26 -28 26 -69 0 -41
-4 -52 -26 -69 -33 -26 -64 -27 -97 -1 -31 25 -41 62 -27 106 19 56 75 72 124
33z"/>
<path d="M1970 910 c0 -134 18 -149 22 -18 l3 93 55 -92 c77 -129 90 -127 90
17 0 67 -4 110 -10 110 -6 0 -10 -37 -10 -91 0 -49 -4 -88 -8 -85 -5 3 -32 44
-61 91 -72 116 -81 113 -81 -25z"/>
<path d="M892 614 c-15 -10 -22 -25 -22 -48 0 -46 36 -72 75 -54 19 8 19 8 -2
4 -32 -6 -63 20 -63 54 0 34 29 55 62 44 14 -4 18 -2 14 5 -10 16 -38 14 -64
-5z"/>
<path d="M1062 568 c-2 -64 -1 -68 20 -68 20 0 20 1 5 13 -11 8 -17 31 -20 67
-3 54 -3 54 -5 -12z"/>
<path d="M1212 614 c-26 -18 -30 -75 -7 -94 24 -20 67 -15 87 10 23 29 23 51
-2 78 -24 26 -47 28 -78 6z m74 -19 c24 -36 6 -75 -34 -75 -34 0 -52 16 -52
46 0 52 58 71 86 29z"/>
<path d="M1402 623 c13 -3 18 -18 21 -61 l3 -57 2 57 c2 44 6 58 20 61 9 3 -1
5 -23 5 -22 0 -32 -2 -23 -5z"/>
<path d="M1553 570 c0 -36 2 -50 4 -32 4 31 7 33 36 30 28 -3 32 -7 32 -30 -1
-16 3 -28 7 -28 4 0 8 28 7 63 -1 41 -3 54 -8 37 -5 -19 -15 -26 -38 -28 -28
-3 -32 0 -36 25 -2 15 -4 -1 -4 -37z"/>
<path d="M1740 565 c0 -63 1 -65 25 -65 14 0 25 4 25 9 0 5 -8 8 -17 7 -12 -1
-19 7 -21 26 -3 21 2 27 20 31 l23 4 -22 2 c-35 2 -31 39 5 44 25 4 25 4 -5 6
l-33 1 0 -65z"/>
<path d="M1907 623 c-14 -14 -6 -38 20 -59 24 -19 26 -24 14 -38 -10 -12 -17
-14 -25 -6 -5 5 -15 10 -20 10 -6 0 -3 -7 8 -15 13 -10 24 -11 37 -4 27 14 24
44 -6 63 -31 20 -34 51 -5 43 11 -3 18 -1 14 4 -6 11 -28 12 -37 2z"/>
</g>
<text x="143" y="270" text-anchor="middle" font-family="Arial, sans-serif" font-weight="400" font-size="9" letter-spacing="3" fill="#8A8A8A">SINCE 2017</text>
</svg>